<svg xmlns="http://www.w3.org/2000/svg" viewBox="0 0 400 244"><path fill="#fff" d="M115 90.8c0 6.2.7 11.4 2.1 15.5c1.4 4.1 3.3 7.5 5.7 10.1c2.4 2.6 5.2 4.5 8.3 5.7c3.1 1.2 6.5 1.8 10 1.8c5.2 0 9.8-.6 13.7-1.9c3.9-1.3 7.6-2.6 11-4.1l4.9 15.4c-4 1.9-8.6 3.5-13.7 4.9c-5.1 1.4-11.2 2.1-18.2 2.1c-7.3 0-13.8-1.1-19.5-3.4c-5.7-2.3-10.5-5.6-14.4-10c-3.9-4.4-6.9-9.9-8.9-16.5c-2-6.6-3-14.2-3-22.9c0-7.8 1-15 3-21.5c2-6.5 5-12.2 8.9-16.9c3.9-4.7 8.7-8.4 14.4-11c5.7-2.6 12.2-4 19.5-4c6.6 0 12.5.9 17.7 2.7c5.2 1.8 9.7 4.6 13.4 8.2c3.7 3.7 6.6 8.3 8.7 13.9c2.1 5.6 3.1 12.1 3.1 19.6v12.3H115zm30.9-55.6c-7.3 0-13.1 2.2-17.3 6.6c-4.2 4.4-6.6 11.1-7.2 20h46.4c-.2-8.9-2.2-15.6-6-20c-3.9-4.4-9.6-6.6-16.9-6.6M255.4 138.2L231.5 78h-1.2c.6 8.6.9 16.8.9 24.5v35.8h-17.7V45.8h26l23.4 59.1h.5l22.9-59.1h26v92.4h-18.9v-36.7c0-3.5.1-7.3.3-11.4c.2-4.1.4-10.2.8-18.4h-1.2l-23.3 66.1zM355.1 27.2c-4.8 0-8.7-1.4-11.6-4.3c-2.9-2.9-4.4-6.4-4.4-10.5c0-4.4 1.4-8 4.3-10.9c2.9-2.8 6.9-4.3 11.9-4.3c4.9 0 8.8 1.4 11.7 4.3c2.8 2.9 4.3 6.5 4.3 10.9c0 4.1-1.4 7.6-4.3 10.5c-2.8 2.9-6.8 4.3-11.9 4.3M341 45.8h28.5v92.4H341z"/><path fill="#ff9900" d="M313.5 193.6c-30.5 22.5-74.7 34-113.1 34c-53.5 0-101.8-19.8-138.3-53.1c-2.9-2.6-.3-6.2 3.2-4.1c39.4 22.9 88.2 36.7 138.4 36.7c34 0 71.4-7.1 105.8-21.7c5.2-2.3 9.6 3.4 3.9 8.2"/><path fill="#ff9900" d="M327.5 177.8c-4-5.1-26.4-2.4-36.5-1.2c-3 .4-3.5-2.2-.8-4.1c17.8-12.5 46.9-8.9 50.3-4.7c3.4 4.3-.9 33.6-17.6 47.6c-2.6 2.2-5.1 1-3.9-1.9c3.8-9.3 12.3-30.2 8.3-35.4"/></svg>
