<svg xmlns="http://www.w3.org/2000/svg" viewBox="0 0 256 198"><path fill="#2496ed" d="M246.2 80.5c-4.4-3.2-14.5-4.4-22.3-2.6c-.8-6.5-4.2-12.3-10.5-17.4l-3.2-2.3l-2.1 3.3c-3.1 5-3.9 18.5 1.2 26.2c-2.6 1.5-7.4 3.5-13.9 3.3H2.9l-1.5 3.3c-2.9 6.3-3.2 25.7 8.4 43.2c12.1 18.3 30.3 27.6 54.2 27.6c51 0 92.4-23.3 115.3-64.2c7.4.2 46.9.5 63.5-32.9c.5-1.1 1.3-2.7 1-4.5c-.4-1.9-1.6-3.1-2.6-3.8M86.6 63.3H66.7V83h19.9zm0-21.9H66.7v19.8h19.9zM64.6 63.3H44.7V83h19.9zm0-21.9H44.7v19.8h19.9zm44 0h-19.9v19.8h19.9zm22.1 21.9H110V83h19.9zm-22.1 0H88V83h19.9zm44 0h-19.9V83h19.9zm22 0h-19.9V83h19.9z"/></svg>
