<svg xmlns="http://www.w3.org/2000/svg" viewBox="0 0 256 512"><path fill="#599636" d="M127.8 0s-13.4 70.5-44.5 94.2c-23 17.9-39.3 44-39.3 76.2c0 95.4 57.6 123.8 74 139.6c5.2 5 9.9 13.5 10.5 19.8c1.2 11.9.7 37.8 0 59.2c-.5 13.3-1.9 25.9-2.8 31.1h19.2c-.9-5.2-2.3-17.7-2.8-31.1c-.7-21.3-1.2-47.3 0-59.2c.7-6.3 5.4-14.8 10.6-19.8c16.4-15.8 73.9-44.2 73.9-139.6c0-32.2-16.3-58.3-39.3-76.2C141.3 70.5 127.8 0 127.8 0"/><path fill="#6cac48" d="M127.8 0s-13.4 70.5-44.5 94.2c-23 17.9-39.3 44-39.3 76.2c0 95.4 57.6 123.8 74 139.6c5.2 5 9.9 13.5 10.5 19.8c1.2 11.9.7 37.8 0 59.2c-.5 13.3-1.9 25.9-2.8 31.1h9.6V0z"/><path fill="#c2bfbf" d="M137.5 389.8c-.7 6.3-1.2 32.3 0 54.2c.9 15.9 3.2 31.1 4.2 36.8h-19.2c.9-5.7 3.3-20.9 4.2-36.8c1.2-21.9.7-47.9 0-54.2c-.7-6.3-5.3-14.8-10.5-19.8c-16.4-15.8-74-44.2-74-139.6c0-32.2 16.3-58.3 39.3-76.2c13.3-10.3 23.5-29 30.5-47c6.9-18.1 11.3-35.4 13.4-46.7c2.1 11.3 6.4 28.6 13.4 46.7c7 18.1 17.2 36.7 30.5 47c23 17.9 39.3 44 39.3 76.2c0 95.4-57.5 123.8-73.9 139.6c-5.3 5-10 13.5-10.6 19.8"/></svg>
