<svg xmlns="http://www.w3.org/2000/svg" viewBox="0 0 256 256"><path fill="#E0234E" d="M146.4 0c2.7 5.1 4.3 10.8 4.3 16.9c0 12.2-6.3 22.9-15.8 28.6v-.3c0-25.1-13.5-39.5-13.5-45.2c0-1.3.3-2.7.5-4H146.4zM224.4 190.6c-4.5 10.4-10.8 19.8-18.4 27.8c-22.1 22.9-53.2 37.2-87.5 37.6c-14.9 0-29.2-2.7-42.2-7.7c11.2 6.1 24.1 9.6 37.7 9.6c44.8 0 81.2-36.4 81.2-81.2c0-12.7-2.9-24.8-8.1-35.6c1.1 0 2.1.3 3.2.3c8.8 0 17-2.1 24.3-5.9c4.5-2.4 8.8-5.1 12.5-8.5c2.1-1.9 3.7-4 5.6-6.1c2.4-3.5 4.3-7.2 5.9-11.2c1.6-4.3 2.4-8.8 2.4-13.5c0-7.7-1.9-15.1-5.1-21.6c14.6 15.1 23.5 35.6 23.5 58.3c0 16.2-4.5 31.5-12.1 44.8m-129.6 43.7c-29.5 0-53.7-24.1-53.7-53.5c0-17.2 8.3-32.6 21.1-42.4c1.1-.8 2.1-1.6 3.2-2.1c.3-.3.8-.5 1.1-.8c.3-.3.8-.5 1.1-.8c3.2-2.1 6.4-3.5 10.1-4.8c.8-.3 1.6-.5 2.4-.8c.8-.3 1.6-.5 2.4-.8c1.3-.3 2.7-.8 4-1.1c1.3-.3 2.7-.5 4-.8c1.3-.3 2.9-.5 4.3-.8c.3 0 .8-.3 1.1-.3c1.3-.3 2.7-.5 4-.8c.8-.3 1.3-.5 2.1-.5c.8-.3 1.6-.5 2.4-.8c7.2-1.9 14.1-3.2 21.3-5.1c3.2-.8 6.4-1.3 9.6-2.1c6.9-1.6 13.8-4 20.8-7.2c2.9-1.3 5.9-2.7 8.5-4.3c13.5-7.2 24.3-17.7 31.7-30.2c4-6.9 6.9-14.9 8-23.5c3.2 2.9 5.1 6.1 7.2 9.6c5.1 8.5 8.3 18.4 8.3 29.2c0 27.2-17.2 50.4-41.1 59.2c-6.9 2.7-14.4 4.3-22.4 4.3c-33.7 0-61.1-27.4-61.1-61.1c0-12.2 3.7-23.5 9.9-33.1c-27.4 11.7-46.7 38.7-46.7 70.5c-.1 42 34.1 76.2 76.1 76.2z"/></svg>
