<svg xmlns="http://www.w3.org/2000/svg" viewBox="0 0 256 288"><path fill="#539e43" d="m128 0 128 72v144l-128 72L0 216V72z"/><path fill="#fff" d="M174.9 206.5c0 23.9-14.2 34.7-35.4 34.7c-18.9 0-30-9.8-35.6-21.6l19.2-11.6c3.7 6.6 7.1 12.1 15.3 12.1c7.8 0 12.8-3.1 12.8-15.1v-82.1h23.7v83.6zm55.2-95.4c-9.2 0-15 4.3-19.1 10.2l-.4-8.2h-21.4v122.6l24-14.4v-29.8c4.2 5.1 10 12.3 21.1 12.3c16.9 0 32.3-13.6 32.3-46c-.1-30.1-14.7-46.7-36.5-46.7m-6.5 73.1c-6.9 0-11-3.3-14-7.4v-41.6c3.1-4.2 7.2-7.4 14.2-7.4c10.8 0 18.1 12.6 18.1 28.2c0 16-7.3 28.2-18.3 28.2"/></svg>
