<svg xmlns="http://www.w3.org/2000/svg" viewBox="0 0 256 256"><path fill="#336791" d="M128 0C57.3 0 0 57.3 0 128s57.3 128 128 128 128-57.3 128-128S198.7 0 128 0"/><path fill="#fff" d="M189.4 164.6c-5.7 1.2-16.8 2.2-24.6.9c-6.2-1-14.2-4.3-17.3-7.9c-2.8-3.2-5.4-9.3-7.4-15.8c23.2-6 38.8-20.5 43.4-42.3c3.2-15.3.5-31.2-7.7-41.7c-8-10.3-20.6-16.5-35.1-17.2c-14.8-.7-30 3.4-40.9 11c-11.5 8.1-19.8 20.5-22.5 34.3c-3.1 16.1 1.5 32.4 11.9 43.6c5.6 6 12.8 10.5 21.3 13.1c2 6.8 4.5 13 8.3 17.5c-2.8 1.7-6.4 3-10.8 3.7c-7.3 1.2-18.7.3-24.6-.9c-4.2-.9-8.7-2.2-12.6-3.7c-1.2-.5-2.3-.9-3.4-1.4c-2.6-1.2-5.1.5-4.3 3.2c10.1 36.6 24 60.3 62.8 60.3h1.2c38.9-.3 52.7-23.7 62.8-60.3c.8-2.7-1.7-4.4-4.3-3.2c-1 .5-2.2.9-3.4 1.4c-3.9 1.6-8.3 2.8-12.6 3.7"/></svg>
