<svg xmlns="http://www.w3.org/2000/svg" viewBox="0 0 48 48"><path fill="#38bdf8" d="M24.002 10c-6.4 0-10.4 3.2-12 9.6 2.4-3.2 5.2-4.4 8.4-3.6 1.826.456 3.131 1.78 4.576 3.252C27.74 22.505 30.208 25 36.002 25c6.4 0 10.4-3.2 12-9.6-2.4 3.2-5.2 4.4-8.4 3.6-1.826-.456-3.131-1.78-4.576-3.252C32.264 12.495 29.796 10 24.002 10Zm-12 15c-6.4 0-10.4 3.2-12 9.6 2.4-3.2 5.2-4.4 8.4-3.6 1.826.456 3.131 1.78 4.576 3.252C15.74 37.505 18.208 40 24.002 40c6.4 0 10.4-3.2 12-9.6-2.4 3.2-5.2 4.4-8.4 3.6-1.826-.456-3.131-1.78-4.576-3.252C20.264 27.495 17.796 25 12.002 25Z"/></svg>
