<svg xmlns="http://www.w3.org/2000/svg" viewBox="0 0 512 512"><rect width="512" height="512" fill="#3178c6" rx="50"/><path fill="#fff" d="M233.6 371.5V256h67.7v-46.1H134.5V256h67.7v115.5h31.4zm63-1.2c8 4.1 23.3 7.6 35.5 7.6 34.1 0 59.7-17.3 59.7-48.9 0-23.7-13.5-38.5-41.6-48.5l-15.2-5.3c-18-6.2-25.8-11.8-25.8-21.7 0-9.1 7.9-16 20.1-16 11.8 0 21.8 4.4 31.1 14.5l20.8-21.7c-13.3-12.3-28-19.2-51.5-19.2-28.9 0-54.3 16.5-54.3 46.1 0 24.3 14.4 38.9 44.9 49.7l15.2 5.5c16.4 5.8 23.5 11.6 23.5 21.4 0 10.3-9.5 17.5-23.5 17.5-16.1 0-27.4-5.2-39.1-17.2z"/></svg>
